<svg width="518" height="305" viewBox="0 0 518 305" fill="none" xmlns="http://www.w3.org/2000/svg">
<g filter="url(#filter0_d_8_418)">
<g clip-path="url(#clip0_8_418)">
<rect x="75" y="72" width="368" height="155" rx="24" fill="#5DC6C9"/>
<path d="M148.574 183.163H137.082C132.897 183.163 129.504 179.769 129.504 175.582C129.504 171.397 132.897 168.004 137.082 168.004H148.484" stroke="white" stroke-width="1.5" stroke-linecap="round" stroke-linejoin="round"/>
<path d="M138.376 175.409H137.497" stroke="white" stroke-width="1.5" stroke-linecap="round" stroke-linejoin="round"/>
<path d="M108.465 163.849H120.47" stroke="white" stroke-width="1.5" stroke-linecap="round" stroke-linejoin="round"/>
<path fill-rule="evenodd" clip-rule="evenodd" d="M94 176C94 157.062 100.874 150.751 121.501 150.751C142.126 150.751 149 157.062 149 176C149 194.935 142.126 201.249 121.501 201.249C100.874 201.249 94 194.935 94 176Z" stroke="white" stroke-width="1.5" stroke-linecap="round" stroke-linejoin="round"/>
<path d="M164.19 178V159.13H159.87V155.65H168.27V178H164.19ZM181.72 178.36C179.94 178.36 178.38 177.88 177.04 176.92C175.7 175.96 174.65 174.61 173.89 172.87C173.15 171.13 172.78 169.11 172.78 166.81C172.78 164.49 173.15 162.47 173.89 160.75C174.63 159.03 175.67 157.69 177.01 156.73C178.35 155.77 179.91 155.29 181.69 155.29C183.51 155.29 185.08 155.77 186.4 156.73C187.74 157.69 188.79 159.04 189.55 160.78C190.31 162.5 190.69 164.51 190.69 166.81C190.69 169.11 190.31 171.13 189.55 172.87C188.81 174.59 187.77 175.94 186.43 176.92C185.09 177.88 183.52 178.36 181.72 178.36ZM181.75 174.64C182.77 174.64 183.64 174.33 184.36 173.71C185.08 173.07 185.63 172.17 186.01 171.01C186.41 169.83 186.61 168.43 186.61 166.81C186.61 165.19 186.41 163.8 186.01 162.64C185.63 161.46 185.07 160.56 184.33 159.94C183.61 159.32 182.73 159.01 181.69 159.01C180.69 159.01 179.83 159.32 179.11 159.94C178.39 160.56 177.83 161.46 177.43 162.64C177.05 163.8 176.86 165.19 176.86 166.81C176.86 168.41 177.05 169.8 177.43 170.98C177.83 172.14 178.39 173.04 179.11 173.68C179.85 174.32 180.73 174.64 181.75 174.64ZM195.43 182.68V180.73C196.09 180.57 196.62 180.26 197.02 179.8C197.44 179.36 197.7 178.76 197.8 178H196.03V173.8H199.99V176.38C199.99 178.14 199.6 179.55 198.82 180.61C198.06 181.67 196.93 182.36 195.43 182.68ZM213.683 178.36C211.903 178.36 210.343 177.88 209.003 176.92C207.663 175.96 206.613 174.61 205.853 172.87C205.113 171.13 204.743 169.11 204.743 166.81C204.743 164.49 205.113 162.47 205.853 160.75C206.593 159.03 207.633 157.69 208.973 156.73C210.313 155.77 211.873 155.29 213.653 155.29C215.473 155.29 217.043 155.77 218.363 156.73C219.703 157.69 220.753 159.04 221.513 160.78C222.273 162.5 222.653 164.51 222.653 166.81C222.653 169.11 222.273 171.13 221.513 172.87C220.773 174.59 219.733 175.94 218.393 176.92C217.053 177.88 215.483 178.36 213.683 178.36ZM213.713 174.64C214.733 174.64 215.603 174.33 216.323 173.71C217.043 173.07 217.593 172.17 217.973 171.01C218.373 169.83 218.573 168.43 218.573 166.81C218.573 165.19 218.373 163.8 217.973 162.64C217.593 161.46 217.033 160.56 216.293 159.94C215.573 159.32 214.693 159.01 213.653 159.01C212.653 159.01 211.793 159.32 211.073 159.94C210.353 160.56 209.793 161.46 209.393 162.64C209.013 163.8 208.823 165.19 208.823 166.81C208.823 168.41 209.013 169.8 209.393 170.98C209.793 172.14 210.353 173.04 211.073 173.68C211.813 174.32 212.693 174.64 213.713 174.64ZM234.923 178.36C233.143 178.36 231.583 177.88 230.243 176.92C228.903 175.96 227.853 174.61 227.093 172.87C226.353 171.13 225.983 169.11 225.983 166.81C225.983 164.49 226.353 162.47 227.093 160.75C227.833 159.03 228.873 157.69 230.213 156.73C231.553 155.77 233.113 155.29 234.893 155.29C236.713 155.29 238.283 155.77 239.603 156.73C240.943 157.69 241.993 159.04 242.753 160.78C243.513 162.5 243.893 164.51 243.893 166.81C243.893 169.11 243.513 171.13 242.753 172.87C242.013 174.59 240.973 175.94 239.633 176.92C238.293 177.88 236.723 178.36 234.923 178.36ZM234.953 174.64C235.973 174.64 236.843 174.33 237.563 173.71C238.283 173.07 238.833 172.17 239.213 171.01C239.613 169.83 239.813 168.43 239.813 166.81C239.813 165.19 239.613 163.8 239.213 162.64C238.833 161.46 238.273 160.56 237.533 159.94C236.813 159.32 235.933 159.01 234.893 159.01C233.893 159.01 233.033 159.32 232.313 159.94C231.593 160.56 231.033 161.46 230.633 162.64C230.253 163.8 230.063 165.19 230.063 166.81C230.063 168.41 230.253 169.8 230.633 170.98C231.033 172.14 231.593 173.04 232.313 173.68C233.053 174.32 233.933 174.64 234.953 174.64ZM256.163 178.36C254.383 178.36 252.823 177.88 251.483 176.92C250.143 175.96 249.093 174.61 248.333 172.87C247.593 171.13 247.223 169.11 247.223 166.81C247.223 164.49 247.593 162.47 248.333 160.75C249.073 159.03 250.113 157.69 251.453 156.73C252.793 155.77 254.353 155.29 256.133 155.29C257.953 155.29 259.523 155.77 260.843 156.73C262.183 157.69 263.233 159.04 263.993 160.78C264.753 162.5 265.133 164.51 265.133 166.81C265.133 169.11 264.753 171.13 263.993 172.87C263.253 174.59 262.213 175.94 260.873 176.92C259.533 177.88 257.963 178.36 256.163 178.36ZM256.193 174.64C257.213 174.64 258.083 174.33 258.803 173.71C259.523 173.07 260.073 172.17 260.453 171.01C260.853 169.83 261.053 168.43 261.053 166.81C261.053 165.19 260.853 163.8 260.453 162.64C260.073 161.46 259.513 160.56 258.773 159.94C258.053 159.32 257.173 159.01 256.133 159.01C255.133 159.01 254.273 159.32 253.553 159.94C252.833 160.56 252.273 161.46 251.873 162.64C251.493 163.8 251.303 165.19 251.303 166.81C251.303 168.41 251.493 169.8 251.873 170.98C252.273 172.14 252.833 173.04 253.553 173.68C254.293 174.32 255.173 174.64 256.193 174.64ZM272.445 178L280.155 155.65H285.435L293.145 178H288.705L287.115 173.2H278.475L276.855 178H272.445ZM279.645 169.6H285.945L282.225 158.47H283.365L279.645 169.6ZM293.893 178V174.79L304.723 159.25H294.523V155.65H309.913V158.86L299.113 174.4H310.213V178H293.893ZM312.771 178V155.65H315.951L328.251 172.21L326.601 172.54V155.65H330.681V178H327.471L315.351 161.32L316.851 160.99V178H312.771Z" fill="white"/>
<path d="M167.818 196.709V197.338C167.818 198.085 167.725 198.755 167.538 199.348C167.351 199.94 167.082 200.444 166.731 200.858C166.381 201.273 165.959 201.59 165.467 201.809C164.979 202.027 164.432 202.137 163.826 202.137C163.238 202.137 162.698 202.027 162.206 201.809C161.718 201.59 161.295 201.273 160.935 200.858C160.579 200.444 160.303 199.94 160.107 199.348C159.911 198.755 159.813 198.085 159.813 197.338V196.709C159.813 195.962 159.909 195.294 160.101 194.706C160.297 194.114 160.572 193.61 160.928 193.195C161.283 192.776 161.705 192.457 162.192 192.238C162.685 192.02 163.225 191.91 163.812 191.91C164.419 191.91 164.965 192.02 165.453 192.238C165.945 192.457 166.367 192.776 166.718 193.195C167.073 193.61 167.344 194.114 167.531 194.706C167.723 195.294 167.818 195.962 167.818 196.709ZM166.513 197.338V196.695C166.513 196.103 166.451 195.579 166.328 195.123C166.21 194.667 166.034 194.285 165.802 193.975C165.569 193.665 165.285 193.43 164.947 193.271C164.615 193.111 164.236 193.031 163.812 193.031C163.402 193.031 163.031 193.111 162.698 193.271C162.37 193.43 162.088 193.665 161.851 193.975C161.618 194.285 161.438 194.667 161.311 195.123C161.183 195.579 161.119 196.103 161.119 196.695V197.338C161.119 197.935 161.183 198.464 161.311 198.924C161.438 199.38 161.62 199.765 161.857 200.079C162.099 200.389 162.384 200.624 162.712 200.783C163.045 200.943 163.416 201.022 163.826 201.022C164.255 201.022 164.635 200.943 164.968 200.783C165.3 200.624 165.581 200.389 165.809 200.079C166.041 199.765 166.216 199.38 166.335 198.924C166.453 198.464 166.513 197.935 166.513 197.338ZM170.867 196.183V202H169.603V194.604H170.799L170.867 196.183ZM170.566 198.021L170.04 198.001C170.045 197.495 170.12 197.028 170.266 196.6C170.411 196.167 170.617 195.791 170.881 195.472C171.145 195.153 171.46 194.907 171.824 194.733C172.193 194.556 172.601 194.467 173.048 194.467C173.412 194.467 173.741 194.517 174.032 194.617C174.324 194.713 174.572 194.868 174.777 195.082C174.987 195.296 175.146 195.574 175.256 195.916C175.365 196.253 175.42 196.666 175.42 197.153V202H174.148V197.14C174.148 196.752 174.091 196.442 173.978 196.21C173.864 195.973 173.697 195.802 173.479 195.697C173.26 195.588 172.991 195.533 172.672 195.533C172.357 195.533 172.07 195.599 171.811 195.731C171.555 195.864 171.334 196.046 171.147 196.278C170.965 196.511 170.822 196.777 170.717 197.078C170.617 197.374 170.566 197.689 170.566 198.021ZM178.715 191.5V202H177.443V191.5H178.715ZM182.119 194.604V202H180.848V194.604H182.119ZM180.752 192.642C180.752 192.437 180.813 192.263 180.937 192.122C181.064 191.981 181.251 191.91 181.497 191.91C181.739 191.91 181.923 191.981 182.051 192.122C182.183 192.263 182.249 192.437 182.249 192.642C182.249 192.838 182.183 193.006 182.051 193.147C181.923 193.284 181.739 193.353 181.497 193.353C181.251 193.353 181.064 193.284 180.937 193.147C180.813 193.006 180.752 192.838 180.752 192.642ZM185.414 196.183V202H184.149V194.604H185.346L185.414 196.183ZM185.113 198.021L184.587 198.001C184.591 197.495 184.667 197.028 184.812 196.6C184.958 196.167 185.163 195.791 185.428 195.472C185.692 195.153 186.007 194.907 186.371 194.733C186.74 194.556 187.148 194.467 187.595 194.467C187.959 194.467 188.287 194.517 188.579 194.617C188.871 194.713 189.119 194.868 189.324 195.082C189.534 195.296 189.693 195.574 189.803 195.916C189.912 196.253 189.967 196.666 189.967 197.153V202H188.695V197.14C188.695 196.752 188.638 196.442 188.524 196.21C188.41 195.973 188.244 195.802 188.025 195.697C187.807 195.588 187.538 195.533 187.219 195.533C186.904 195.533 186.617 195.599 186.357 195.731C186.102 195.864 185.881 196.046 185.694 196.278C185.512 196.511 185.368 196.777 185.264 197.078C185.163 197.374 185.113 197.689 185.113 198.021ZM194.957 202.137C194.442 202.137 193.975 202.05 193.556 201.877C193.141 201.699 192.783 201.451 192.482 201.132C192.186 200.813 191.958 200.435 191.799 199.997C191.639 199.56 191.56 199.081 191.56 198.562V198.274C191.56 197.673 191.648 197.137 191.826 196.668C192.004 196.194 192.245 195.793 192.551 195.465C192.856 195.137 193.202 194.888 193.59 194.72C193.977 194.551 194.378 194.467 194.793 194.467C195.322 194.467 195.777 194.558 196.16 194.74C196.548 194.923 196.864 195.178 197.11 195.506C197.356 195.829 197.539 196.212 197.657 196.654C197.776 197.092 197.835 197.57 197.835 198.09V198.657H192.312V197.625H196.57V197.529C196.552 197.201 196.484 196.882 196.365 196.572C196.251 196.262 196.069 196.007 195.818 195.807C195.568 195.606 195.226 195.506 194.793 195.506C194.506 195.506 194.242 195.567 194 195.69C193.758 195.809 193.551 195.987 193.378 196.224C193.205 196.461 193.07 196.75 192.975 197.092C192.879 197.434 192.831 197.828 192.831 198.274V198.562C192.831 198.912 192.879 199.243 192.975 199.553C193.075 199.858 193.218 200.127 193.405 200.359C193.597 200.592 193.827 200.774 194.096 200.906C194.369 201.038 194.679 201.104 195.025 201.104C195.472 201.104 195.85 201.013 196.16 200.831C196.47 200.649 196.741 200.405 196.974 200.1L197.739 200.708C197.58 200.95 197.377 201.18 197.131 201.398C196.885 201.617 196.582 201.795 196.222 201.932C195.866 202.068 195.445 202.137 194.957 202.137ZM207.146 200.735V196.928C207.146 196.636 207.086 196.383 206.968 196.169C206.854 195.95 206.681 195.782 206.448 195.663C206.216 195.545 205.929 195.485 205.587 195.485C205.268 195.485 204.988 195.54 204.746 195.649C204.509 195.759 204.322 195.902 204.186 196.08C204.053 196.258 203.987 196.449 203.987 196.654H202.723C202.723 196.39 202.791 196.128 202.928 195.868C203.064 195.608 203.26 195.374 203.516 195.164C203.775 194.95 204.085 194.781 204.445 194.658C204.81 194.531 205.215 194.467 205.662 194.467C206.2 194.467 206.674 194.558 207.084 194.74C207.499 194.923 207.822 195.198 208.055 195.567C208.292 195.932 208.41 196.39 208.41 196.941V200.387C208.41 200.633 208.431 200.895 208.472 201.173C208.517 201.451 208.583 201.69 208.67 201.891V202H207.351C207.287 201.854 207.237 201.66 207.2 201.419C207.164 201.173 207.146 200.945 207.146 200.735ZM207.364 197.516L207.378 198.404H206.1C205.74 198.404 205.418 198.434 205.136 198.493C204.853 198.548 204.616 198.632 204.425 198.746C204.233 198.86 204.088 199.004 203.987 199.177C203.887 199.345 203.837 199.544 203.837 199.771C203.837 200.004 203.889 200.216 203.994 200.407C204.099 200.599 204.256 200.751 204.466 200.865C204.68 200.975 204.942 201.029 205.252 201.029C205.639 201.029 205.981 200.947 206.277 200.783C206.574 200.619 206.808 200.419 206.981 200.182C207.159 199.945 207.255 199.715 207.269 199.491L207.809 200.1C207.777 200.291 207.69 200.503 207.549 200.735C207.408 200.968 207.218 201.191 206.981 201.405C206.749 201.615 206.471 201.79 206.147 201.932C205.828 202.068 205.468 202.137 205.067 202.137C204.566 202.137 204.126 202.039 203.748 201.843C203.374 201.647 203.083 201.385 202.873 201.057C202.668 200.724 202.565 200.353 202.565 199.942C202.565 199.546 202.643 199.197 202.798 198.896C202.953 198.591 203.176 198.338 203.468 198.138C203.759 197.933 204.11 197.778 204.521 197.673C204.931 197.568 205.389 197.516 205.895 197.516H207.364ZM211.664 195.766V202H210.399V194.604H211.63L211.664 195.766ZM213.975 194.562L213.968 195.738C213.863 195.715 213.763 195.702 213.667 195.697C213.576 195.688 213.471 195.684 213.353 195.684C213.061 195.684 212.803 195.729 212.58 195.82C212.357 195.911 212.168 196.039 212.013 196.203C211.858 196.367 211.735 196.563 211.644 196.791C211.557 197.014 211.5 197.26 211.473 197.529L211.117 197.734C211.117 197.288 211.16 196.868 211.247 196.477C211.338 196.085 211.477 195.738 211.664 195.438C211.851 195.132 212.088 194.895 212.375 194.727C212.667 194.553 213.013 194.467 213.414 194.467C213.505 194.467 213.61 194.478 213.729 194.501C213.847 194.519 213.929 194.54 213.975 194.562ZM218.582 194.604V195.574H214.583V194.604H218.582ZM215.937 192.806H217.201V200.168C217.201 200.419 217.24 200.608 217.317 200.735C217.395 200.863 217.495 200.947 217.618 200.988C217.741 201.029 217.873 201.05 218.015 201.05C218.119 201.05 218.229 201.041 218.343 201.022C218.461 201 218.55 200.981 218.609 200.968L218.616 202C218.516 202.032 218.384 202.062 218.22 202.089C218.06 202.121 217.867 202.137 217.639 202.137C217.329 202.137 217.044 202.075 216.784 201.952C216.524 201.829 216.317 201.624 216.162 201.337C216.012 201.045 215.937 200.653 215.937 200.161V192.806ZM221.433 194.604V202H220.168V194.604H221.433ZM224.803 195.766V202H223.538V194.604H224.769L224.803 195.766ZM227.113 194.562L227.106 195.738C227.002 195.715 226.901 195.702 226.806 195.697C226.715 195.688 226.61 195.684 226.491 195.684C226.2 195.684 225.942 195.729 225.719 195.82C225.495 195.911 225.306 196.039 225.151 196.203C224.996 196.367 224.873 196.563 224.782 196.791C224.696 197.014 224.639 197.26 224.611 197.529L224.256 197.734C224.256 197.288 224.299 196.868 224.386 196.477C224.477 196.085 224.616 195.738 224.803 195.438C224.99 195.132 225.227 194.895 225.514 194.727C225.805 194.553 226.152 194.467 226.553 194.467C226.644 194.467 226.749 194.478 226.867 194.501C226.986 194.519 227.068 194.54 227.113 194.562ZM229.649 194.604V202H228.385V194.604H229.649ZM233.129 191.5V202H231.857V191.5H233.129ZM236.417 196.073V202H235.146V194.604H236.349L236.417 196.073ZM236.157 198.021L235.569 198.001C235.574 197.495 235.64 197.028 235.768 196.6C235.895 196.167 236.084 195.791 236.335 195.472C236.586 195.153 236.898 194.907 237.271 194.733C237.645 194.556 238.078 194.467 238.57 194.467C238.917 194.467 239.236 194.517 239.527 194.617C239.819 194.713 240.072 194.866 240.286 195.075C240.5 195.285 240.667 195.554 240.785 195.882C240.904 196.21 240.963 196.606 240.963 197.071V202H239.698V197.133C239.698 196.745 239.632 196.436 239.5 196.203C239.372 195.971 239.19 195.802 238.953 195.697C238.716 195.588 238.438 195.533 238.119 195.533C237.745 195.533 237.433 195.599 237.183 195.731C236.932 195.864 236.731 196.046 236.581 196.278C236.431 196.511 236.321 196.777 236.253 197.078C236.189 197.374 236.157 197.689 236.157 198.021ZM240.949 197.324L240.102 197.584C240.106 197.178 240.172 196.789 240.3 196.415C240.432 196.041 240.621 195.709 240.867 195.417C241.118 195.125 241.425 194.895 241.79 194.727C242.155 194.553 242.572 194.467 243.041 194.467C243.438 194.467 243.788 194.519 244.094 194.624C244.404 194.729 244.663 194.891 244.873 195.109C245.087 195.324 245.249 195.599 245.358 195.937C245.468 196.274 245.522 196.675 245.522 197.14V202H244.251V197.126C244.251 196.711 244.185 196.39 244.053 196.162C243.925 195.93 243.743 195.768 243.506 195.677C243.273 195.581 242.995 195.533 242.672 195.533C242.394 195.533 242.148 195.581 241.934 195.677C241.719 195.772 241.539 195.905 241.394 196.073C241.248 196.237 241.136 196.426 241.059 196.641C240.986 196.855 240.949 197.083 240.949 197.324ZM251.798 200.735V196.928C251.798 196.636 251.739 196.383 251.62 196.169C251.506 195.95 251.333 195.782 251.101 195.663C250.868 195.545 250.581 195.485 250.239 195.485C249.92 195.485 249.64 195.54 249.398 195.649C249.161 195.759 248.975 195.902 248.838 196.08C248.706 196.258 248.64 196.449 248.64 196.654H247.375C247.375 196.39 247.443 196.128 247.58 195.868C247.717 195.608 247.913 195.374 248.168 195.164C248.428 194.95 248.738 194.781 249.098 194.658C249.462 194.531 249.868 194.467 250.314 194.467C250.852 194.467 251.326 194.558 251.736 194.74C252.151 194.923 252.475 195.198 252.707 195.567C252.944 195.932 253.062 196.39 253.062 196.941V200.387C253.062 200.633 253.083 200.895 253.124 201.173C253.17 201.451 253.236 201.69 253.322 201.891V202H252.003C251.939 201.854 251.889 201.66 251.853 201.419C251.816 201.173 251.798 200.945 251.798 200.735ZM252.017 197.516L252.03 198.404H250.752C250.392 198.404 250.071 198.434 249.788 198.493C249.506 198.548 249.269 198.632 249.077 198.746C248.886 198.86 248.74 199.004 248.64 199.177C248.539 199.345 248.489 199.544 248.489 199.771C248.489 200.004 248.542 200.216 248.646 200.407C248.751 200.599 248.909 200.751 249.118 200.865C249.332 200.975 249.594 201.029 249.904 201.029C250.292 201.029 250.633 200.947 250.93 200.783C251.226 200.619 251.461 200.419 251.634 200.182C251.812 199.945 251.907 199.715 251.921 199.491L252.461 200.1C252.429 200.291 252.342 200.503 252.201 200.735C252.06 200.968 251.871 201.191 251.634 201.405C251.401 201.615 251.123 201.79 250.8 201.932C250.481 202.068 250.121 202.137 249.72 202.137C249.218 202.137 248.779 202.039 248.4 201.843C248.027 201.647 247.735 201.385 247.525 201.057C247.32 200.724 247.218 200.353 247.218 199.942C247.218 199.546 247.295 199.197 247.45 198.896C247.605 198.591 247.828 198.338 248.12 198.138C248.412 197.933 248.763 197.778 249.173 197.673C249.583 197.568 250.041 197.516 250.547 197.516H252.017Z" fill="white"/>
<path d="M159 203.367H254.088V204.051H159V203.367Z" fill="white"/>
<path d="M95.328 111V99.08H100.336C101.051 99.08 101.664 99.208 102.176 99.464C102.699 99.72 103.099 100.083 103.376 100.552C103.664 101.011 103.808 101.56 103.808 102.2C103.808 102.787 103.653 103.32 103.344 103.8C103.045 104.269 102.603 104.637 102.016 104.904L102 104.312C102.512 104.504 102.933 104.76 103.264 105.08C103.605 105.389 103.861 105.752 104.032 106.168C104.203 106.573 104.288 107.005 104.288 107.464C104.288 108.563 103.936 109.427 103.232 110.056C102.528 110.685 101.568 111 100.352 111H95.328ZM96.896 109.56H100.416C101.109 109.56 101.664 109.373 102.08 109C102.496 108.627 102.704 108.12 102.704 107.48C102.704 106.84 102.496 106.333 102.08 105.96C101.664 105.576 101.109 105.384 100.416 105.384H96.896V109.56ZM96.896 103.976H100.304C100.88 103.976 101.344 103.811 101.696 103.48C102.048 103.139 102.224 102.707 102.224 102.184C102.224 101.64 102.048 101.224 101.696 100.936C101.344 100.648 100.88 100.504 100.304 100.504H96.896V103.976ZM107.254 111L111.526 99.08H113.382L117.654 111H115.974L114.998 108.2H109.91L108.934 111H107.254ZM110.406 106.76H114.502L112.23 100.216H112.678L110.406 106.76ZM121.156 111V99.08H122.724V109.56H127.956V111H121.156ZM130.567 111L134.839 99.08H136.695L140.967 111H139.287L138.311 108.2H133.223L132.247 111H130.567ZM133.719 106.76H137.815L135.543 100.216H135.991L133.719 106.76ZM144.469 111V99.08H145.781L152.629 108.712L152.037 108.776V99.08H153.621V111H152.309L145.493 101.304L146.037 101.24V111H144.469ZM162.377 111.192C161.62 111.192 160.926 111.053 160.297 110.776C159.668 110.488 159.134 110.099 158.697 109.608C158.26 109.117 157.945 108.568 157.753 107.96L159.113 107.4C159.401 108.168 159.828 108.76 160.393 109.176C160.969 109.581 161.641 109.784 162.409 109.784C162.878 109.784 163.289 109.709 163.641 109.56C163.993 109.411 164.265 109.203 164.457 108.936C164.66 108.659 164.761 108.339 164.761 107.976C164.761 107.475 164.617 107.08 164.329 106.792C164.052 106.493 163.641 106.269 163.097 106.12L160.905 105.448C160.041 105.181 159.38 104.76 158.921 104.184C158.462 103.608 158.233 102.947 158.233 102.2C158.233 101.549 158.388 100.979 158.697 100.488C159.017 99.9867 159.454 99.5973 160.009 99.32C160.574 99.032 161.214 98.888 161.929 98.888C162.644 98.888 163.289 99.016 163.865 99.272C164.452 99.528 164.948 99.8747 165.353 100.312C165.758 100.739 166.057 101.229 166.249 101.784L164.905 102.344C164.649 101.672 164.265 101.165 163.753 100.824C163.241 100.472 162.638 100.296 161.945 100.296C161.518 100.296 161.14 100.371 160.809 100.52C160.489 100.659 160.238 100.867 160.057 101.144C159.886 101.411 159.801 101.731 159.801 102.104C159.801 102.541 159.94 102.931 160.217 103.272C160.494 103.613 160.916 103.875 161.481 104.056L163.481 104.648C164.42 104.936 165.129 105.347 165.609 105.88C166.089 106.413 166.329 107.075 166.329 107.864C166.329 108.515 166.158 109.091 165.817 109.592C165.486 110.093 165.022 110.488 164.425 110.776C163.838 111.053 163.156 111.192 162.377 111.192Z" fill="white"/>
<path d="M374.045 95.393C373.06 67.6113 384.024 62.1693 389.629 62.9209H447.865V231.144H398.242C395.371 219.869 391.352 190.013 398.242 160.788C406.854 124.257 375.275 130.12 374.045 95.393Z" fill="#FFFBF3"/>
<path opacity="0.5" d="M346.85 104.224C340.09 77.2588 349.677 69.649 355.316 69.2146L412.27 57.0638L447.37 221.585L398.838 231.938C393.678 221.511 383.518 193.15 384.158 163.131C384.959 125.607 355.299 137.93 346.85 104.224Z" fill="white"/>
<path d="M405.873 97.9382L406.444 99.1717L399.369 102.448L398.798 101.214L405.873 97.9382ZM401.6 96.258L405.079 103.773L403.768 104.38L400.288 96.8652L401.6 96.258Z" fill="#FFC248"/>
<path d="M411 137.427L410.168 138.503L404.001 133.732L404.833 132.657L411 137.427ZM410.523 132.86L405.456 139.411L404.313 138.527L409.379 131.976L410.523 132.86Z" fill="#EB001B"/>
<g filter="url(#filter1_f_8_418)">
<path d="M420.03 174.369L419.199 175.444L413.031 170.674L413.863 169.599L420.03 174.369ZM419.553 169.802L414.486 176.352L413.343 175.468L418.41 168.917L419.553 169.802Z" fill="#FFC248"/>
</g>
<path d="M411.821 208.847L410.99 209.923L404.822 205.152L405.654 204.077L411.821 208.847ZM411.344 204.28L406.277 210.831L405.134 209.947L410.2 203.396L411.344 204.28Z" fill="black"/>
</g>
</g>
<defs>
<filter id="filter0_d_8_418" x="0" y="0" width="518" height="305" filterUnits="userSpaceOnUse" color-interpolation-filters="sRGB">
<feFlood flood-opacity="0" result="BackgroundImageFix"/>
<feColorMatrix in="SourceAlpha" type="matrix" values="0 0 0 0 0 0 0 0 0 0 0 0 0 0 0 0 0 0 127 0" result="hardAlpha"/>
<feOffset dy="3"/>
<feGaussianBlur stdDeviation="37.5"/>
<feComposite in2="hardAlpha" operator="out"/>
<feColorMatrix type="matrix" values="0 0 0 0 0 0 0 0 0 0 0 0 0 0 0 0 0 0 0.1 0"/>
<feBlend mode="normal" in2="BackgroundImageFix" result="effect1_dropShadow_8_418"/>
<feBlend mode="normal" in="SourceGraphic" in2="effect1_dropShadow_8_418" result="shape"/>
</filter>
<filter id="filter1_f_8_418" x="408.828" y="164.972" width="15.2339" height="15.3207" filterUnits="userSpaceOnUse" color-interpolation-filters="sRGB">
<feFlood flood-opacity="0" result="BackgroundImageFix"/>
<feBlend mode="normal" in="SourceGraphic" in2="BackgroundImageFix" result="shape"/>
<feGaussianBlur stdDeviation="1" result="effect1_foregroundBlur_8_418"/>
</filter>
<clipPath id="clip0_8_418">
<rect x="75" y="72" width="368" height="155" rx="24" fill="white"/>
</clipPath>
</defs>
</svg>
