<svg width="37" height="36" viewBox="0 0 37 36" fill="none" xmlns="http://www.w3.org/2000/svg">
<path d="M24.0264 11.1316C22.5883 10.7588 20.5898 10.2105 18.9877 10.2105C11.0881 10.2105 4.68433 15.1245 4.68433 21.1863C4.68433 24.6698 6.79895 27.7741 10.0969 29.7849L9.20334 32.7319C8.98813 33.4417 9.51932 34.1579 10.261 34.1579H13.5107C13.75 34.1579 13.9828 34.0803 14.1741 33.9367L16.7431 32.0087H21.2321L23.8011 33.9367C23.9925 34.0803 24.2254 34.1579 24.4647 34.1579H27.7143C28.456 34.1579 28.9872 33.4417 28.7719 32.7319L27.8785 29.7849C29.8432 28.587 31.388 27.0008 32.3159 25.1776" stroke="black" stroke-width="2" stroke-linecap="round" stroke-linejoin="round"/>
<path d="M24.0264 11.1316L32.3158 8.36842L32.1611 15.0521L36.0001 16.6579V23.1053L32.4523 24.9474" stroke="black" stroke-width="2" stroke-linecap="round" stroke-linejoin="round"/>
<path d="M25.8686 19.4211C25.36 19.4211 24.9475 19.0086 24.9475 18.5C24.9475 17.9914 25.36 17.5789 25.8686 17.5789C26.3772 17.5789 26.7896 17.9914 26.7896 18.5C26.7896 19.0086 26.3772 19.4211 25.8686 19.4211Z" fill="black" stroke="black" stroke-width="2" stroke-linecap="round" stroke-linejoin="round"/>
<path d="M1 13.8947C1 13.8947 1 18.3158 4.68421 19.4211" stroke="black" stroke-width="2" stroke-linecap="round" stroke-linejoin="round"/>
<path d="M20.8964 9.75545C21.1341 9.07083 21.2634 8.33408 21.2634 7.56659C21.2634 3.93996 18.3768 1 14.816 1C11.2552 1 8.36865 3.93996 8.36865 7.56659C8.36865 9.30123 9.02903 10.8788 10.1077 12.0526" stroke="black" stroke-width="2" stroke-linejoin="round"/>
</svg>
