<svg width="48" height="48" viewBox="0 0 48 48" fill="none" xmlns="http://www.w3.org/2000/svg">
<path d="M30.591 35.0335H18.4353V13.1876H30.591V35.0335Z" fill="#FF5F00"/>
<path d="M19.2149 24.1109C19.2149 19.6793 21.2898 15.7319 24.5209 13.1879C22.1581 11.3277 19.1761 10.2174 15.9352 10.2174C8.26281 10.2174 2.04346 16.4376 2.04346 24.1109C2.04346 31.7842 8.26281 38.0044 15.9352 38.0044C19.1761 38.0044 22.1581 36.8941 24.5209 35.0338C21.2898 32.4899 19.2149 28.5424 19.2149 24.1109Z" fill="#EB001B"/>
<path d="M46.9876 24.1109C46.9876 31.7842 40.7683 38.0044 33.0959 38.0044C29.855 38.0044 26.873 36.8941 24.5093 35.0338C27.7413 32.4899 29.8162 28.5424 29.8162 24.1109C29.8162 19.6793 27.7413 15.7319 24.5093 13.1879C26.873 11.3277 29.855 10.2174 33.0959 10.2174C40.7683 10.2174 46.9876 16.4376 46.9876 24.1109Z" fill="#F79E1B"/>
</svg>
