<svg width="95" height="65" viewBox="0 0 95 65" fill="none" xmlns="http://www.w3.org/2000/svg">
<circle cx="30" cy="32" r="30" fill="#5DC6C9"/>
<path d="M25 46.8712H21.6667C17.9848 46.8712 15 43.8864 15 40.2045V29.7172C15 27.386 16.2177 25.2241 18.2113 24.0158L26.5447 18.9653C28.6685 17.6782 31.3315 17.6782 33.4553 18.9653L41.7887 24.0158C43.7823 25.2241 45 27.386 45 29.7172V40.2045C45 43.8864 42.0152 46.8712 38.3333 46.8712H35M25 46.8712V40.2045C25 37.443 27.2385 35.2045 30 35.2045C32.7615 35.2045 35 37.443 35 40.2045V46.8712M25 46.8712H35" stroke="white" stroke-width="3" stroke-linecap="round" stroke-linejoin="round"/>
</svg>
