<svg width="57" height="57" viewBox="0 0 57 57" fill="none" xmlns="http://www.w3.org/2000/svg">
<circle cx="28.2209" cy="28.8914" r="28" fill="#F2C94C"/>
<path fill-rule="evenodd" clip-rule="evenodd" d="M27.8126 29.8915C27.8126 30.9902 26.9222 31.8807 25.8234 31.8807C24.7246 31.8807 23.8342 30.9902 23.8342 29.8915C23.8342 28.7927 24.7246 27.9023 25.8234 27.9023H25.8266C26.9243 27.9034 27.8126 28.7938 27.8126 29.8915Z" stroke="white" stroke-width="1.5" stroke-linecap="round" stroke-linejoin="round"/>
<path d="M27.8159 29.8915H34.6019V31.8806" stroke="white" stroke-width="1.5" stroke-linecap="round" stroke-linejoin="round"/>
<path d="M31.5646 31.8806V29.8915" stroke="white" stroke-width="1.5" stroke-linecap="round" stroke-linejoin="round"/>
<path fill-rule="evenodd" clip-rule="evenodd" d="M19.2856 29.8915C19.2856 22.4406 21.77 19.9563 29.2208 19.9563C36.6717 19.9563 39.156 22.4406 39.156 29.8915C39.156 37.3423 36.6717 39.8267 29.2208 39.8267C21.77 39.8267 19.2856 37.3423 19.2856 29.8915Z" stroke="white" stroke-width="1.5" stroke-linecap="round" stroke-linejoin="round"/>
</svg>
