<svg width="57" height="57" viewBox="0 0 57 57" fill="none" xmlns="http://www.w3.org/2000/svg">
<circle cx="28.2209" cy="28.8914" r="28" fill="#9B51E0"/>
<g clip-path="url(#clip0_10_624)">
<path d="M39.8876 30.6414V39.3914C39.8876 39.7008 39.7647 39.9976 39.5459 40.2163C39.3271 40.4351 39.0304 40.5581 38.7209 40.5581H37.5543C37.2449 40.5581 36.9481 40.4351 36.7293 40.2163C36.5105 39.9976 36.3876 39.7008 36.3876 39.3914V38.2247H20.0543V39.3914C20.0543 39.7008 19.9314 39.9976 19.7126 40.2163C19.4938 40.4351 19.197 40.5581 18.8876 40.5581H17.7209C17.4115 40.5581 17.1148 40.4351 16.896 40.2163C16.6772 39.9976 16.5543 39.7008 16.5543 39.3914V30.6414L15.1041 30.2797C14.8518 30.2165 14.6279 30.0708 14.4679 29.8658C14.3079 29.6608 14.221 29.4081 14.2209 29.1481V28.3081C14.2209 28.1533 14.2824 28.005 14.3918 27.8956C14.5012 27.7862 14.6496 27.7247 14.8043 27.7247H16.9918L19.4861 21.0724C19.6529 20.6275 19.9514 20.2442 20.3419 19.9736C20.7324 19.703 21.1962 19.558 21.6713 19.5581H34.7706C35.2457 19.558 35.7095 19.703 36.1 19.9736C36.4904 20.2442 36.789 20.6275 36.9558 21.0724L39.4501 27.7247H41.6376C41.7923 27.7247 41.9407 27.7862 42.0501 27.8956C42.1595 28.005 42.2209 28.1533 42.2209 28.3081V29.1481C42.2209 29.4081 42.134 29.6608 41.974 29.8658C41.814 30.0708 41.5901 30.2165 41.3378 30.2797L39.8876 30.6414ZM18.8876 32.3914V34.7247C18.8876 35.0341 19.0105 35.3309 19.2293 35.5497C19.4481 35.7685 19.7449 35.8914 20.0543 35.8914H23.8401C23.9408 35.8912 24.0398 35.865 24.1274 35.8152C24.215 35.7654 24.2882 35.6938 24.3399 35.6074C24.3916 35.5209 24.42 35.4225 24.4224 35.3218C24.4247 35.2211 24.401 35.1215 24.3534 35.0327C23.4143 33.2711 21.5919 32.3914 18.8876 32.3914ZM37.5543 32.3914C34.8511 32.3914 33.0288 33.2722 32.0873 35.0327C32.0397 35.1216 32.0159 35.2213 32.0184 35.3221C32.0208 35.4229 32.0493 35.5214 32.1012 35.6079C32.153 35.6944 32.2263 35.766 32.3141 35.8156C32.4018 35.8653 32.5009 35.8914 32.6018 35.8914H36.3876C36.697 35.8914 36.9938 35.7685 37.2126 35.5497C37.4314 35.3309 37.5543 35.0341 37.5543 34.7247V32.3914ZM21.2209 21.8914L19.3998 27.3561C19.3414 27.5313 19.3255 27.718 19.3533 27.9007C19.3812 28.0833 19.452 28.2567 19.56 28.4066C19.668 28.5566 19.8101 28.6787 19.9745 28.763C20.1389 28.8472 20.321 28.8912 20.5058 28.8914H35.9361C36.1209 28.8912 36.303 28.8472 36.4674 28.763C36.6318 28.6787 36.7739 28.5566 36.8819 28.4066C36.9898 28.2567 37.0607 28.0833 37.0886 27.9007C37.1164 27.718 37.1005 27.5313 37.0421 27.3561L35.2209 21.8914H21.2209Z" fill="white"/>
</g>
<defs>
<clipPath id="clip0_10_624">
<rect width="28" height="28" fill="white" transform="translate(14.2209 14.8914)"/>
</clipPath>
</defs>
</svg>
