<svg width="57" height="57" viewBox="0 0 57 57" fill="none" xmlns="http://www.w3.org/2000/svg">
<circle cx="28.7209" cy="28.8914" r="28" fill="#EF5DA8"/>
<path d="M22.2447 23.8915C26.1352 22.6353 30.6933 22.3472 32.7209 22.3915C34.7486 22.4358 35.6041 23.1578 36.2209 24.3915C37.2209 26.3915 37.0099 31.3796 35.2209 32.9786C33.4329 34.5776 26.0511 34.7296 23.5911 32.9786C20.9921 31.1276 22.3499 26.0835 22.2649 22.6345C22.3159 20.7045 20.2209 20.3915 20.2209 20.3915" stroke="white" stroke-width="1.5" stroke-linecap="round" stroke-linejoin="round"/>
<path d="M29.7209 27.3915H32.4939" stroke="white" stroke-width="1.5" stroke-linecap="round" stroke-linejoin="round"/>
<path fill-rule="evenodd" clip-rule="evenodd" d="M23.9849 37.0189C24.2849 37.0189 24.5289 37.2629 24.5289 37.5629C24.5289 37.8639 24.2849 38.1079 23.9849 38.1079C23.6839 38.1079 23.4399 37.8639 23.4399 37.5629C23.4399 37.2629 23.6839 37.0189 23.9849 37.0189Z" fill="white" stroke="white" stroke-width="1.5" stroke-linecap="round" stroke-linejoin="round"/>
<path fill-rule="evenodd" clip-rule="evenodd" d="M34.3165 37.0189C34.6175 37.0189 34.8615 37.2629 34.8615 37.5629C34.8615 37.8639 34.6175 38.1079 34.3165 38.1079C34.0165 38.1079 33.7725 37.8639 33.7725 37.5629C33.7725 37.2629 34.0165 37.0189 34.3165 37.0189Z" fill="white" stroke="white" stroke-width="1.5" stroke-linecap="round" stroke-linejoin="round"/>
</svg>
