<svg width="260" height="330" viewBox="0 0 260 330" fill="none" xmlns="http://www.w3.org/2000/svg">
<path d="M44.696 144L56.744 128.592L57.944 130.272C57.496 130.464 57.064 130.64 56.648 130.8C56.264 130.928 55.864 131.024 55.448 131.088C55.032 131.152 54.6 131.184 54.152 131.184C51.944 131.184 49.976 130.688 48.248 129.696C46.552 128.704 45.208 127.36 44.216 125.664C43.256 123.936 42.776 122 42.776 119.856C42.776 117.488 43.32 115.392 44.408 113.568C45.496 111.744 47 110.304 48.92 109.248C50.84 108.192 53.032 107.664 55.496 107.664C57.992 107.664 60.184 108.192 62.072 109.248C63.992 110.272 65.496 111.68 66.584 113.472C67.672 115.232 68.216 117.248 68.216 119.52C68.216 120.64 68.104 121.76 67.88 122.88C67.656 124 67.208 125.232 66.536 126.576C65.864 127.888 64.856 129.424 63.512 131.184L53.576 144H44.696ZM55.496 125.088C56.488 125.088 57.368 124.864 58.136 124.416C58.936 123.968 59.576 123.344 60.056 122.544C60.536 121.744 60.776 120.816 60.776 119.76C60.776 118.672 60.536 117.728 60.056 116.928C59.576 116.128 58.936 115.504 58.136 115.056C57.368 114.608 56.488 114.384 55.496 114.384C54.536 114.384 53.656 114.608 52.856 115.056C52.056 115.504 51.416 116.128 50.936 116.928C50.456 117.728 50.216 118.672 50.216 119.76C50.216 120.816 50.456 121.744 50.936 122.544C51.416 123.344 52.056 123.968 52.856 124.416C53.656 124.864 54.536 125.088 55.496 125.088ZM77.5528 144L106.449 108.24H113.841L84.9448 144H77.5528ZM83.2648 126.384C81.4728 126.384 79.8568 125.968 78.4168 125.136C77.0088 124.272 75.8888 123.136 75.0568 121.728C74.2248 120.32 73.8088 118.752 73.8088 117.024C73.8088 115.296 74.2248 113.728 75.0568 112.32C75.8888 110.88 77.0088 109.744 78.4168 108.912C79.8568 108.08 81.4728 107.664 83.2648 107.664C85.0568 107.664 86.6568 108.08 88.0648 108.912C89.4728 109.744 90.5928 110.88 91.4248 112.32C92.2568 113.728 92.6728 115.296 92.6728 117.024C92.6728 118.752 92.2568 120.32 91.4248 121.728C90.5928 123.136 89.4728 124.272 88.0648 125.136C86.6568 125.968 85.0568 126.384 83.2648 126.384ZM83.2648 121.104C84.1288 121.104 84.8488 120.912 85.4248 120.528C86.0008 120.112 86.4328 119.6 86.7208 118.992C87.0088 118.352 87.1528 117.696 87.1528 117.024C87.1528 116.32 87.0088 115.664 86.7208 115.056C86.4328 114.448 86.0008 113.952 85.4248 113.568C84.8488 113.152 84.1288 112.944 83.2648 112.944C82.4008 112.944 81.6808 113.152 81.1048 113.568C80.5288 113.952 80.0808 114.448 79.7608 115.056C79.4728 115.664 79.3288 116.32 79.3288 117.024C79.3288 117.696 79.4728 118.352 79.7608 118.992C80.0808 119.6 80.5288 120.112 81.1048 120.528C81.6808 120.912 82.4008 121.104 83.2648 121.104ZM108.081 144.576C106.289 144.576 104.673 144.16 103.233 143.328C101.825 142.464 100.705 141.328 99.8728 139.92C99.0408 138.512 98.6248 136.944 98.6248 135.216C98.6248 133.488 99.0408 131.92 99.8728 130.512C100.705 129.072 101.825 127.936 103.233 127.104C104.673 126.272 106.289 125.856 108.081 125.856C109.873 125.856 111.473 126.272 112.881 127.104C114.289 127.936 115.409 129.072 116.241 130.512C117.073 131.92 117.489 133.488 117.489 135.216C117.489 136.944 117.073 138.512 116.241 139.92C115.409 141.328 114.289 142.464 112.881 143.328C111.473 144.16 109.873 144.576 108.081 144.576ZM108.081 139.296C108.945 139.296 109.665 139.104 110.241 138.72C110.817 138.304 111.249 137.792 111.537 137.184C111.825 136.544 111.969 135.888 111.969 135.216C111.969 134.512 111.825 133.856 111.537 133.248C111.249 132.64 110.817 132.144 110.241 131.76C109.665 131.344 108.945 131.136 108.081 131.136C107.249 131.136 106.529 131.344 105.921 131.76C105.345 132.144 104.897 132.64 104.577 133.248C104.289 133.856 104.145 134.512 104.145 135.216C104.145 135.888 104.289 136.544 104.577 137.184C104.897 137.792 105.345 138.304 105.921 138.72C106.529 139.104 107.249 139.296 108.081 139.296Z" fill="#5DC6C9"/>
<path d="M134.16 205V175.528H127.2V169.24H141.6V205H134.16ZM153.988 205V175.528H147.028V169.24H161.428V205H153.988ZM173.24 205L202.136 169.24H209.528L180.632 205H173.24ZM178.952 187.384C177.16 187.384 175.544 186.968 174.104 186.136C172.696 185.272 171.576 184.136 170.744 182.728C169.912 181.32 169.496 179.752 169.496 178.024C169.496 176.296 169.912 174.728 170.744 173.32C171.576 171.88 172.696 170.744 174.104 169.912C175.544 169.08 177.16 168.664 178.952 168.664C180.744 168.664 182.344 169.08 183.752 169.912C185.16 170.744 186.28 171.88 187.112 173.32C187.944 174.728 188.36 176.296 188.36 178.024C188.36 179.752 187.944 181.32 187.112 182.728C186.28 184.136 185.16 185.272 183.752 186.136C182.344 186.968 180.744 187.384 178.952 187.384ZM178.952 182.104C179.816 182.104 180.536 181.912 181.112 181.528C181.688 181.112 182.12 180.6 182.408 179.992C182.696 179.352 182.84 178.696 182.84 178.024C182.84 177.32 182.696 176.664 182.408 176.056C182.12 175.448 181.688 174.952 181.112 174.568C180.536 174.152 179.816 173.944 178.952 173.944C178.088 173.944 177.368 174.152 176.792 174.568C176.216 174.952 175.768 175.448 175.448 176.056C175.16 176.664 175.016 177.32 175.016 178.024C175.016 178.696 175.16 179.352 175.448 179.992C175.768 180.6 176.216 181.112 176.792 181.528C177.368 181.912 178.088 182.104 178.952 182.104ZM203.768 205.576C201.976 205.576 200.36 205.16 198.92 204.328C197.512 203.464 196.392 202.328 195.56 200.92C194.728 199.512 194.312 197.944 194.312 196.216C194.312 194.488 194.728 192.92 195.56 191.512C196.392 190.072 197.512 188.936 198.92 188.104C200.36 187.272 201.976 186.856 203.768 186.856C205.56 186.856 207.16 187.272 208.568 188.104C209.976 188.936 211.096 190.072 211.928 191.512C212.76 192.92 213.176 194.488 213.176 196.216C213.176 197.944 212.76 199.512 211.928 200.92C211.096 202.328 209.976 203.464 208.568 204.328C207.16 205.16 205.56 205.576 203.768 205.576ZM203.768 200.296C204.632 200.296 205.352 200.104 205.928 199.72C206.504 199.304 206.936 198.792 207.224 198.184C207.512 197.544 207.656 196.888 207.656 196.216C207.656 195.512 207.512 194.856 207.224 194.248C206.936 193.64 206.504 193.144 205.928 192.76C205.352 192.344 204.632 192.136 203.768 192.136C202.936 192.136 202.216 192.344 201.608 192.76C201.032 193.144 200.584 193.64 200.264 194.248C199.976 194.856 199.832 195.512 199.832 196.216C199.832 196.888 199.976 197.544 200.264 198.184C200.584 198.792 201.032 199.304 201.608 199.72C202.216 200.104 202.936 200.296 203.768 200.296Z" fill="#5DC6C9"/>
<path d="M31.056 37V25.08H35.632C36.4533 25.08 37.1787 25.224 37.808 25.512C38.448 25.8 38.9493 26.2267 39.312 26.792C39.6747 27.3573 39.856 28.056 39.856 28.888C39.856 29.6987 39.6693 30.3867 39.296 30.952C38.9333 31.5173 38.432 31.9493 37.792 32.248C37.1627 32.536 36.4427 32.68 35.632 32.68H33.536V37H31.056ZM33.536 30.52H35.648C36 30.52 36.304 30.4507 36.56 30.312C36.816 30.1733 37.0133 29.9813 37.152 29.736C37.3013 29.4907 37.376 29.208 37.376 28.888C37.376 28.5573 37.3013 28.2693 37.152 28.024C37.0133 27.7787 36.816 27.5867 36.56 27.448C36.304 27.3093 36 27.24 35.648 27.24H33.536V30.52ZM46.1826 37.192C45.244 37.192 44.4066 36.9947 43.6706 36.6C42.9346 36.2053 42.3533 35.6667 41.9266 34.984C41.5106 34.2907 41.3026 33.5067 41.3026 32.632V25.08H43.7826V32.472C43.7826 32.9413 43.884 33.368 44.0866 33.752C44.3 34.1253 44.588 34.4187 44.9506 34.632C45.3133 34.8453 45.724 34.952 46.1826 34.952C46.652 34.952 47.0626 34.8453 47.4146 34.632C47.7773 34.4187 48.06 34.1253 48.2626 33.752C48.476 33.368 48.5826 32.9413 48.5826 32.472V25.08H51.0626V32.632C51.0626 33.5067 50.8493 34.2907 50.4226 34.984C50.0066 35.6667 49.4306 36.2053 48.6946 36.6C47.9586 36.9947 47.1213 37.192 46.1826 37.192ZM53.0247 37V25.08H55.5048V34.84H60.5448V37H53.0247ZM66.1983 37.192C65.2596 37.192 64.4223 36.9947 63.6863 36.6C62.9503 36.2053 62.3689 35.6667 61.9423 34.984C61.5263 34.2907 61.3183 33.5067 61.3183 32.632V25.08H63.7983V32.472C63.7983 32.9413 63.8996 33.368 64.1023 33.752C64.3156 34.1253 64.6036 34.4187 64.9663 34.632C65.3289 34.8453 65.7396 34.952 66.1983 34.952C66.6676 34.952 67.0783 34.8453 67.4303 34.632C67.7929 34.4187 68.0756 34.1253 68.2783 33.752C68.4916 33.368 68.5983 32.9413 68.5983 32.472V25.08H71.0783V32.632C71.0783 33.5067 70.8649 34.2907 70.4383 34.984C70.0223 35.6667 69.4463 36.2053 68.7103 36.6C67.9743 36.9947 67.1369 37.192 66.1983 37.192ZM73.0404 37V25.08H74.9444L81.3444 33.512L80.3204 33.752V25.08H82.8004V37H80.8804L74.5924 28.504L75.5204 28.264V37H73.0404ZM89.6514 37.192C88.7127 37.192 87.8754 36.9947 87.1394 36.6C86.4034 36.2053 85.822 35.6667 85.3954 34.984C84.9794 34.2907 84.7714 33.5067 84.7714 32.632V25.08H87.2514V32.472C87.2514 32.9413 87.3527 33.368 87.5554 33.752C87.7687 34.1253 88.0567 34.4187 88.4194 34.632C88.782 34.8453 89.1927 34.952 89.6514 34.952C90.1207 34.952 90.5314 34.8453 90.8834 34.632C91.246 34.4187 91.5287 34.1253 91.7314 33.752C91.9447 33.368 92.0514 32.9413 92.0514 32.472V25.08H94.5314V32.632C94.5314 33.5067 94.318 34.2907 93.8914 34.984C93.4754 35.6667 92.8994 36.2053 92.1634 36.6C91.4274 36.9947 90.59 37.192 89.6514 37.192ZM99.3685 37V25.08H107.529V27.24H101.849V30.264H106.729V32.424H101.849V37H99.3685ZM107.082 37L111.114 25.08H114.41L118.442 37H115.738L114.938 34.568H110.57L109.77 37H107.082ZM111.258 32.408H114.25L112.426 26.776H113.098L111.258 32.408ZM119.681 37V25.08H122.161V37H119.681ZM123.395 37V35L128.819 27.24H123.715V25.08H131.955V27.08L126.547 34.84H132.115V37H123.395ZM133.353 37V25.08H135.833V34.84H140.873V37H133.353ZM147.038 37.192C146.228 37.192 145.481 37.0533 144.798 36.776C144.116 36.4987 143.524 36.1093 143.022 35.608C142.521 35.096 142.132 34.488 141.854 33.784C141.577 33.08 141.438 32.3013 141.438 31.448C141.438 31.256 141.444 31.064 141.454 30.872C141.476 30.68 141.508 30.4987 141.55 30.328H150.91V32.248H142.99L144.158 31.368C144.148 31.4747 144.137 31.5813 144.126 31.688C144.116 31.784 144.11 31.8853 144.11 31.992C144.11 32.5573 144.238 33.064 144.494 33.512C144.75 33.96 145.102 34.312 145.55 34.568C146.009 34.824 146.532 34.952 147.118 34.952C147.609 34.952 148.062 34.8613 148.478 34.68C148.905 34.4987 149.268 34.2373 149.566 33.896C149.876 33.5547 150.11 33.144 150.27 32.664C150.43 32.184 150.494 31.6453 150.462 31.048C150.494 30.472 150.425 29.944 150.254 29.464C150.094 28.984 149.854 28.568 149.534 28.216C149.214 27.864 148.825 27.5973 148.366 27.416C147.918 27.224 147.417 27.128 146.862 27.128C146.212 27.128 145.636 27.2667 145.134 27.544C144.633 27.8213 144.238 28.2107 143.95 28.712L141.918 27.736C142.174 27.16 142.548 26.6587 143.038 26.232C143.529 25.8053 144.105 25.4747 144.766 25.24C145.428 25.0053 146.137 24.888 146.894 24.888C147.801 24.888 148.622 25.048 149.358 25.368C150.105 25.688 150.745 26.1307 151.278 26.696C151.822 27.2613 152.238 27.9173 152.526 28.664C152.814 29.4107 152.958 30.216 152.958 31.08C152.958 31.9547 152.809 32.7653 152.51 33.512C152.222 34.248 151.812 34.8933 151.278 35.448C150.745 36.0027 150.116 36.4347 149.39 36.744C148.676 37.0427 147.892 37.192 147.038 37.192ZM157.587 37V25.08H162.627C163.449 25.08 164.153 25.2187 164.739 25.496C165.326 25.7733 165.774 26.1733 166.083 26.696C166.393 27.208 166.547 27.832 166.547 28.568C166.547 29.0907 166.403 29.592 166.115 30.072C165.827 30.5413 165.353 30.936 164.691 31.256V30.04C165.321 30.2853 165.806 30.5787 166.147 30.92C166.489 31.2613 166.723 31.6347 166.851 32.04C166.979 32.4347 167.043 32.8507 167.043 33.288C167.043 34.4613 166.654 35.3733 165.875 36.024C165.097 36.6747 164.014 37 162.627 37H157.587ZM160.067 34.84H162.915C163.417 34.84 163.817 34.696 164.115 34.408C164.414 34.12 164.563 33.7467 164.563 33.288C164.563 32.8187 164.414 32.44 164.115 32.152C163.817 31.864 163.417 31.72 162.915 31.72H160.067V34.84ZM160.067 29.56H162.803C163.187 29.56 163.491 29.4533 163.715 29.24C163.95 29.016 164.067 28.7227 164.067 28.36C164.067 27.9973 163.95 27.7093 163.715 27.496C163.491 27.272 163.187 27.16 162.803 27.16H160.067V29.56ZM167.754 37L171.786 25.08H175.082L179.114 37H176.41L175.61 34.568H171.242L170.442 37H167.754ZM171.93 32.408H174.922L173.098 26.776H173.77L171.93 32.408ZM180.353 37V25.08H182.257L188.657 33.512L187.633 33.752V25.08H190.113V37H188.193L181.905 28.504L182.833 28.264V37H180.353ZM192.228 37V25.08H194.708V31.048L194.02 30.808L198.788 25.08H201.892L197.172 30.776L197.316 29.016L201.988 37H199.092L196.18 31.96L194.708 33.736V37H192.228ZM202.332 37L206.364 25.08H209.66L213.692 37H210.988L210.188 34.568H205.82L205.02 37H202.332ZM206.508 32.408H209.5L207.676 26.776H208.348L206.508 32.408ZM36.784 57.192C35.9307 57.192 35.136 57.0373 34.4 56.728C33.664 56.4187 33.0187 55.9867 32.464 55.432C31.9093 54.8773 31.4773 54.2267 31.168 53.48C30.8587 52.7333 30.704 51.9173 30.704 51.032C30.704 50.1467 30.8533 49.3307 31.152 48.584C31.4507 47.8267 31.872 47.176 32.416 46.632C32.96 46.0773 33.5947 45.6507 34.32 45.352C35.056 45.0427 35.856 44.888 36.72 44.888C37.584 44.888 38.3573 45.032 39.04 45.32C39.7333 45.608 40.32 45.992 40.8 46.472C41.28 46.952 41.6213 47.4853 41.824 48.072L39.632 49.128C39.4293 48.552 39.072 48.0773 38.56 47.704C38.0587 47.32 37.4453 47.128 36.72 47.128C36.016 47.128 35.3973 47.2933 34.864 47.624C34.3307 47.9547 33.9147 48.4133 33.616 49C33.328 49.576 33.184 50.2533 33.184 51.032C33.184 51.8107 33.3387 52.4933 33.648 53.08C33.9573 53.6667 34.3787 54.1253 34.912 54.456C35.456 54.7867 36.08 54.952 36.784 54.952C37.328 54.952 37.8347 54.8507 38.304 54.648C38.784 54.4347 39.168 54.1307 39.456 53.736C39.7547 53.3413 39.904 52.8667 39.904 52.312V51.32L41.04 52.28H36.72V50.2H42.384V51.464C42.384 52.4347 42.224 53.2827 41.904 54.008C41.584 54.7227 41.152 55.32 40.608 55.8C40.0747 56.2693 39.472 56.6213 38.8 56.856C38.1387 57.08 37.4667 57.192 36.784 57.192ZM49.8834 57.192C48.9874 57.192 48.1554 57.0373 47.3874 56.728C46.6194 56.4187 45.9474 55.9867 45.3714 55.432C44.806 54.8667 44.3634 54.2107 44.0434 53.464C43.7234 52.7173 43.5634 51.9067 43.5634 51.032C43.5634 50.1573 43.718 49.3467 44.0274 48.6C44.3474 47.8533 44.79 47.2027 45.3554 46.648C45.9314 46.0933 46.6034 45.6613 47.3714 45.352C48.1394 45.0427 48.9767 44.888 49.8834 44.888C50.79 44.888 51.6274 45.0427 52.3954 45.352C53.1634 45.6613 53.83 46.0933 54.3954 46.648C54.9714 47.2027 55.414 47.8533 55.7234 48.6C56.0434 49.3467 56.2034 50.1573 56.2034 51.032C56.2034 51.9067 56.0434 52.7173 55.7234 53.464C55.4034 54.2107 54.9554 54.8667 54.3794 55.432C53.814 55.9867 53.1474 56.4187 52.3794 56.728C51.6114 57.0373 50.7794 57.192 49.8834 57.192ZM49.8834 54.952C50.4274 54.952 50.9287 54.856 51.3874 54.664C51.8567 54.472 52.2674 54.2053 52.6194 53.864C52.9714 53.512 53.2434 53.096 53.4354 52.616C53.6274 52.136 53.7234 51.608 53.7234 51.032C53.7234 50.456 53.6274 49.9333 53.4354 49.464C53.2434 48.984 52.9714 48.568 52.6194 48.216C52.2674 47.864 51.8567 47.5973 51.3874 47.416C50.9287 47.224 50.4274 47.128 49.8834 47.128C49.3394 47.128 48.8327 47.224 48.3634 47.416C47.9047 47.5973 47.4994 47.864 47.1474 48.216C46.7954 48.568 46.5234 48.984 46.3314 49.464C46.1394 49.9333 46.0434 50.456 46.0434 51.032C46.0434 51.608 46.1394 52.136 46.3314 52.616C46.5234 53.096 46.7954 53.512 47.1474 53.864C47.4994 54.2053 47.9047 54.472 48.3634 54.664C48.8327 54.856 49.3394 54.952 49.8834 54.952ZM60.5659 57V51.8L56.5979 45.08H59.4299L62.3099 50.136H61.3019L64.1659 45.08H66.9979L63.0459 51.784V57H60.5659ZM71.1029 57V45.08H73.5829V57H71.1029ZM75.6966 57V45.08H78.1766V54.84H83.2166V57H75.6966ZM84.4466 57V45.08H86.9266V54.84H91.9666V57H84.4466ZM93.1966 57V45.08H95.6766V57H93.1966ZM97.7904 57V45.08H100.27V51.048L99.5824 50.808L104.35 45.08H107.454L102.734 50.776L102.878 49.016L107.55 57H104.654L101.742 51.96L100.27 53.736V57H97.7904ZM114.701 57L118.717 51.864L119.117 52.424C118.967 52.488 118.823 52.5467 118.685 52.6C118.557 52.6427 118.423 52.6747 118.285 52.696C118.146 52.7173 118.002 52.728 117.853 52.728C117.117 52.728 116.461 52.5627 115.885 52.232C115.319 51.9013 114.871 51.4533 114.541 50.888C114.221 50.312 114.061 49.6667 114.061 48.952C114.061 48.1627 114.242 47.464 114.605 46.856C114.967 46.248 115.469 45.768 116.109 45.416C116.749 45.064 117.479 44.888 118.301 44.888C119.133 44.888 119.863 45.064 120.493 45.416C121.133 45.7573 121.634 46.2267 121.997 46.824C122.359 47.4107 122.541 48.0827 122.541 48.84C122.541 49.2133 122.503 49.5867 122.429 49.96C122.354 50.3333 122.205 50.744 121.981 51.192C121.757 51.6293 121.421 52.1413 120.973 52.728L117.661 57H114.701ZM118.301 50.696C118.631 50.696 118.925 50.6213 119.181 50.472C119.447 50.3227 119.661 50.1147 119.821 49.848C119.981 49.5813 120.061 49.272 120.061 48.92C120.061 48.5573 119.981 48.2427 119.821 47.976C119.661 47.7093 119.447 47.5013 119.181 47.352C118.925 47.2027 118.631 47.128 118.301 47.128C117.981 47.128 117.687 47.2027 117.421 47.352C117.154 47.5013 116.941 47.7093 116.781 47.976C116.621 48.2427 116.541 48.5573 116.541 48.92C116.541 49.272 116.621 49.5813 116.781 49.848C116.941 50.1147 117.154 50.3227 117.421 50.472C117.687 50.6213 117.981 50.696 118.301 50.696ZM124.949 53.992V51.992H132.149V53.992H124.949ZM136.689 57V47.176H134.369V45.08H139.169V57H136.689ZM143.298 57V47.176H140.978V45.08H145.778V57H143.298ZM149.716 57L159.348 45.08H161.812L152.18 57H149.716ZM151.62 51.128C151.022 51.128 150.484 50.9893 150.004 50.712C149.534 50.424 149.161 50.0453 148.884 49.576C148.606 49.1067 148.468 48.584 148.468 48.008C148.468 47.432 148.606 46.9093 148.884 46.44C149.161 45.96 149.534 45.5813 150.004 45.304C150.484 45.0267 151.022 44.888 151.62 44.888C152.217 44.888 152.75 45.0267 153.22 45.304C153.689 45.5813 154.062 45.96 154.34 46.44C154.617 46.9093 154.756 47.432 154.756 48.008C154.756 48.584 154.617 49.1067 154.34 49.576C154.062 50.0453 153.689 50.424 153.22 50.712C152.75 50.9893 152.217 51.128 151.62 51.128ZM151.62 49.368C151.908 49.368 152.148 49.304 152.34 49.176C152.532 49.0373 152.676 48.8667 152.772 48.664C152.868 48.4507 152.916 48.232 152.916 48.008C152.916 47.7733 152.868 47.5547 152.772 47.352C152.676 47.1493 152.532 46.984 152.34 46.856C152.148 46.7173 151.908 46.648 151.62 46.648C151.332 46.648 151.092 46.7173 150.9 46.856C150.708 46.984 150.558 47.1493 150.452 47.352C150.356 47.5547 150.308 47.7733 150.308 48.008C150.308 48.232 150.356 48.4507 150.452 48.664C150.558 48.8667 150.708 49.0373 150.9 49.176C151.092 49.304 151.332 49.368 151.62 49.368ZM159.892 57.192C159.294 57.192 158.756 57.0533 158.276 56.776C157.806 56.488 157.433 56.1093 157.156 55.64C156.878 55.1707 156.74 54.648 156.74 54.072C156.74 53.496 156.878 52.9733 157.156 52.504C157.433 52.024 157.806 51.6453 158.276 51.368C158.756 51.0907 159.294 50.952 159.892 50.952C160.489 50.952 161.022 51.0907 161.492 51.368C161.961 51.6453 162.334 52.024 162.612 52.504C162.889 52.9733 163.028 53.496 163.028 54.072C163.028 54.648 162.889 55.1707 162.612 55.64C162.334 56.1093 161.961 56.488 161.492 56.776C161.022 57.0533 160.489 57.192 159.892 57.192ZM159.892 55.432C160.18 55.432 160.42 55.368 160.612 55.24C160.804 55.1013 160.948 54.9307 161.044 54.728C161.14 54.5147 161.188 54.296 161.188 54.072C161.188 53.8373 161.14 53.6187 161.044 53.416C160.948 53.2133 160.804 53.048 160.612 52.92C160.42 52.7813 160.18 52.712 159.892 52.712C159.614 52.712 159.374 52.7813 159.172 52.92C158.98 53.048 158.83 53.2133 158.724 53.416C158.628 53.6187 158.58 53.8373 158.58 54.072C158.58 54.296 158.628 54.5147 158.724 54.728C158.83 54.9307 158.98 55.1013 159.172 55.24C159.374 55.368 159.614 55.432 159.892 55.432ZM37.024 77.192C36.128 77.192 35.296 77.0373 34.528 76.728C33.76 76.4187 33.088 75.9867 32.512 75.432C31.9467 74.8667 31.504 74.2107 31.184 73.464C30.864 72.7173 30.704 71.9067 30.704 71.032C30.704 70.1573 30.8587 69.3467 31.168 68.6C31.488 67.8533 31.9307 67.2027 32.496 66.648C33.072 66.0933 33.744 65.6613 34.512 65.352C35.28 65.0427 36.1173 64.888 37.024 64.888C37.9307 64.888 38.768 65.0427 39.536 65.352C40.304 65.6613 40.9707 66.0933 41.536 66.648C42.112 67.2027 42.5547 67.8533 42.864 68.6C43.184 69.3467 43.344 70.1573 43.344 71.032C43.344 71.9067 43.184 72.7173 42.864 73.464C42.544 74.2107 42.096 74.8667 41.52 75.432C40.9547 75.9867 40.288 76.4187 39.52 76.728C38.752 77.0373 37.92 77.192 37.024 77.192ZM37.024 74.952C37.568 74.952 38.0693 74.856 38.528 74.664C38.9973 74.472 39.408 74.2053 39.76 73.864C40.112 73.512 40.384 73.096 40.576 72.616C40.768 72.136 40.864 71.608 40.864 71.032C40.864 70.456 40.768 69.9333 40.576 69.464C40.384 68.984 40.112 68.568 39.76 68.216C39.408 67.864 38.9973 67.5973 38.528 67.416C38.0693 67.224 37.568 67.128 37.024 67.128C36.48 67.128 35.9733 67.224 35.504 67.416C35.0453 67.5973 34.64 67.864 34.288 68.216C33.936 68.568 33.664 68.984 33.472 69.464C33.28 69.9333 33.184 70.456 33.184 71.032C33.184 71.608 33.28 72.136 33.472 72.616C33.664 73.096 33.936 73.512 34.288 73.864C34.64 74.2053 35.0453 74.472 35.504 74.664C35.9733 74.856 36.48 74.952 37.024 74.952ZM39.552 78.44L36 72.232H38.56L42.16 78.44H39.552ZM43.7385 77L47.7705 65.08H51.0665L55.0985 77H52.3945L51.5945 74.568H47.2265L46.4265 77H43.7385ZM47.9145 72.408H50.9065L49.0825 66.776H49.7545L47.9145 72.408ZM55.4573 77V75L60.8813 67.24H55.7773V65.08H64.0173V67.08L58.6093 74.84H64.1773V77H55.4573ZM64.5354 77L68.5674 65.08H71.8634L75.8954 77H73.1914L72.3914 74.568H68.0234L67.2234 77H64.5354ZM68.7114 72.408H71.7034L69.8794 66.776H70.5514L68.7114 72.408ZM77.1341 77V65.08H79.0381L85.4381 73.512L84.4141 73.752V65.08H86.8941V77H84.9741L78.6861 68.504L79.6141 68.264V77H77.1341Z" fill="black"/>
<g filter="url(#filter0_d_11_816)">
<rect x="15" y="5" width="230" height="300" rx="15" fill="#5DC6C9" fill-opacity="0.2" shape-rendering="crispEdges"/>
</g>
<path d="M42.98 268V245.65H58.28V249.7H47.63V255.37H56.78V259.42H47.63V268H42.98ZM57.4433 268L65.0033 245.65H71.1833L78.7433 268H73.6733L72.1733 263.44H63.9833L62.4833 268H57.4433ZM65.2733 259.39H70.8833L67.4633 248.83H68.7233L65.2733 259.39ZM81.0659 268V245.65H85.7159V268H81.0659ZM88.0292 268V264.25L98.1992 249.7H88.6292V245.65H104.079V249.4L93.9392 263.95H104.379V268H88.0292ZM106.701 268V245.65H111.351V263.95H120.801V268H106.701ZM132.361 268.36C130.841 268.36 129.441 268.1 128.161 267.58C126.881 267.06 125.771 266.33 124.831 265.39C123.891 264.43 123.161 263.29 122.641 261.97C122.121 260.65 121.861 259.19 121.861 257.59C121.861 257.23 121.871 256.87 121.891 256.51C121.931 256.15 121.991 255.81 122.071 255.49H139.621V259.09H124.771L126.961 257.44C126.941 257.64 126.921 257.84 126.901 258.04C126.881 258.22 126.871 258.41 126.871 258.61C126.871 259.67 127.111 260.62 127.591 261.46C128.071 262.3 128.731 262.96 129.571 263.44C130.431 263.92 131.411 264.16 132.511 264.16C133.431 264.16 134.281 263.99 135.061 263.65C135.861 263.31 136.541 262.82 137.101 262.18C137.681 261.54 138.121 260.77 138.421 259.87C138.721 258.97 138.841 257.96 138.781 256.84C138.841 255.76 138.711 254.77 138.391 253.87C138.091 252.97 137.641 252.19 137.041 251.53C136.441 250.87 135.711 250.37 134.851 250.03C134.011 249.67 133.071 249.49 132.031 249.49C130.811 249.49 129.731 249.75 128.791 250.27C127.851 250.79 127.111 251.52 126.571 252.46L122.761 250.63C123.241 249.55 123.941 248.61 124.861 247.81C125.781 247.01 126.861 246.39 128.101 245.95C129.341 245.51 130.671 245.29 132.091 245.29C133.791 245.29 135.331 245.59 136.711 246.19C138.111 246.79 139.311 247.62 140.311 248.68C141.331 249.74 142.111 250.97 142.651 252.37C143.191 253.77 143.461 255.28 143.461 256.9C143.461 258.54 143.181 260.06 142.621 261.46C142.081 262.84 141.311 264.05 140.311 265.09C139.311 266.13 138.131 266.94 136.771 267.52C135.431 268.08 133.961 268.36 132.361 268.36ZM162.88 268.36C161.28 268.36 159.79 268.07 158.41 267.49C157.03 266.91 155.82 266.1 154.78 265.06C153.74 264.02 152.93 262.8 152.35 261.4C151.77 260 151.48 258.47 151.48 256.81C151.48 255.15 151.76 253.62 152.32 252.22C152.88 250.8 153.67 249.58 154.69 248.56C155.71 247.52 156.9 246.72 158.26 246.16C159.64 245.58 161.14 245.29 162.76 245.29C164.38 245.29 165.83 245.56 167.11 246.1C168.41 246.64 169.51 247.36 170.41 248.26C171.31 249.16 171.95 250.16 172.33 251.26L168.22 253.24C167.84 252.16 167.17 251.27 166.21 250.57C165.27 249.85 164.12 249.49 162.76 249.49C161.44 249.49 160.28 249.8 159.28 250.42C158.28 251.04 157.5 251.9 156.94 253C156.4 254.08 156.13 255.35 156.13 256.81C156.13 258.27 156.42 259.55 157 260.65C157.58 261.75 158.37 262.61 159.37 263.23C160.39 263.85 161.56 264.16 162.88 264.16C163.9 264.16 164.85 263.97 165.73 263.59C166.63 263.19 167.35 262.62 167.89 261.88C168.45 261.14 168.73 260.25 168.73 259.21V257.35L170.86 259.15H162.76V255.25H173.38V257.62C173.38 259.44 173.08 261.03 172.48 262.39C171.88 263.73 171.07 264.85 170.05 265.75C169.05 266.63 167.92 267.29 166.66 267.73C165.42 268.15 164.16 268.36 162.88 268.36ZM187.441 268.36C185.761 268.36 184.201 268.07 182.761 267.49C181.321 266.91 180.061 266.1 178.981 265.06C177.921 264 177.091 262.77 176.491 261.37C175.891 259.97 175.591 258.45 175.591 256.81C175.591 255.17 175.881 253.65 176.461 252.25C177.061 250.85 177.891 249.63 178.951 248.59C180.031 247.55 181.291 246.74 182.731 246.16C184.171 245.58 185.741 245.29 187.441 245.29C189.141 245.29 190.711 245.58 192.151 246.16C193.591 246.74 194.841 247.55 195.901 248.59C196.981 249.63 197.811 250.85 198.391 252.25C198.991 253.65 199.291 255.17 199.291 256.81C199.291 258.45 198.991 259.97 198.391 261.37C197.791 262.77 196.951 264 195.871 265.06C194.811 266.1 193.561 266.91 192.121 267.49C190.681 268.07 189.121 268.36 187.441 268.36ZM187.441 264.16C188.461 264.16 189.401 263.98 190.261 263.62C191.141 263.26 191.911 262.76 192.571 262.12C193.231 261.46 193.741 260.68 194.101 259.78C194.461 258.88 194.641 257.89 194.641 256.81C194.641 255.73 194.461 254.75 194.101 253.87C193.741 252.97 193.231 252.19 192.571 251.53C191.911 250.87 191.141 250.37 190.261 250.03C189.401 249.67 188.461 249.49 187.441 249.49C186.421 249.49 185.471 249.67 184.591 250.03C183.731 250.37 182.971 250.87 182.311 251.53C181.651 252.19 181.141 252.97 180.781 253.87C180.421 254.75 180.241 255.73 180.241 256.81C180.241 257.89 180.421 258.88 180.781 259.78C181.141 260.68 181.651 261.46 182.311 262.12C182.971 262.76 183.731 263.26 184.591 263.62C185.471 263.98 186.421 264.16 187.441 264.16ZM207.471 268V258.25L200.031 245.65H205.341L210.741 255.13H208.851L214.221 245.65H219.531L212.121 258.22V268H207.471Z" fill="#429C9E"/>
<path d="M41 273.25H219.861V274.45H41V273.25Z" fill="#429C9E"/>
<defs>
<filter id="filter0_d_11_816" x="0" y="0" width="260" height="330" filterUnits="userSpaceOnUse" color-interpolation-filters="sRGB">
<feFlood flood-opacity="0" result="BackgroundImageFix"/>
<feColorMatrix in="SourceAlpha" type="matrix" values="0 0 0 0 0 0 0 0 0 0 0 0 0 0 0 0 0 0 127 0" result="hardAlpha"/>
<feOffset dy="10"/>
<feGaussianBlur stdDeviation="7.5"/>
<feComposite in2="hardAlpha" operator="out"/>
<feColorMatrix type="matrix" values="0 0 0 0 0 0 0 0 0 0 0 0 0 0 0 0 0 0 0.05 0"/>
<feBlend mode="normal" in2="BackgroundImageFix" result="effect1_dropShadow_11_816"/>
<feBlend mode="normal" in="SourceGraphic" in2="effect1_dropShadow_11_816" result="shape"/>
</filter>
</defs>
</svg>
