<svg width="60" height="60" viewBox="0 0 60 60" fill="none" xmlns="http://www.w3.org/2000/svg">
<circle cx="30" cy="30" r="30" fill="#5DC6C9" fill-opacity="0.2"/>
<path d="M41.6667 43.3298H18.3333C16.4924 43.3298 15 41.8375 15 39.9965V24.9965C15 23.1555 16.4924 21.6631 18.3333 21.6631H41.6667C43.5077 21.6631 45 23.1555 45 24.9965V39.9965C45 41.8375 43.5077 43.3298 41.6667 43.3298Z" stroke="black" stroke-width="2"/>
<path d="M37.5001 33.3298C37.0399 33.3298 36.6667 32.9566 36.6667 32.4965C36.6667 32.0363 37.0399 31.6631 37.5001 31.6631C37.9602 31.6631 38.3334 32.0363 38.3334 32.4965C38.3334 32.9566 37.9602 33.3298 37.5001 33.3298Z" stroke="black" stroke-width="2" stroke-linecap="round" stroke-linejoin="round"/>
<path d="M40 21.6631V19.3352C40 17.1451 37.924 15.5501 35.8078 16.1144L17.4745 21.0033C16.0153 21.3924 15 22.7139 15 24.2241V24.9965" stroke="black" stroke-width="2"/>
</svg>
