<svg width="16" height="24" viewBox="0 0 16 24" fill="none" xmlns="http://www.w3.org/2000/svg">
<path d="M0.184 24V12.94C0.184 11.5213 0.501333 10.2613 1.136 9.16C1.78933 8.05867 2.69467 7.19067 3.852 6.556C5.028 5.92133 6.372 5.604 7.884 5.604C9.41467 5.604 10.7587 5.92133 11.916 6.556C13.0733 7.19067 13.9693 8.05867 14.604 9.16C15.2573 10.2613 15.584 11.5213 15.584 12.94V24H12.812V13.024C12.812 12.0533 12.5973 11.204 12.168 10.476C11.7573 9.748 11.1787 9.17867 10.432 8.768C9.704 8.35733 8.85467 8.152 7.884 8.152C6.91333 8.152 6.05467 8.35733 5.308 8.768C4.58 9.17867 4.00133 9.748 3.572 10.476C3.16133 11.204 2.956 12.0533 2.956 13.024V24H0.184ZM6.848 24V0.339999H8.948V24H6.848Z" fill="white"/>
</svg>
